<?xml version="1.0" encoding="utf-8"?>
<!-- Svg Vector Icons : http://www.onlinewebfonts.com/icon -->
<!DOCTYPE svg PUBLIC "-//W3C//DTD SVG 1.1//EN" "http://www.w3.org/Graphics/SVG/1.1/DTD/svg11.dtd">
<svg version="1.1" xmlns="http://www.w3.org/2000/svg" xmlns:xlink="http://www.w3.org/1999/xlink" x="0px" y="0px" viewBox="0 0 1000 1000" enable-background="new 0 0 1000 1000" xml:space="preserve">
<metadata> Svg Vector Icons : http://www.onlinewebfonts.com/icon </metadata>
<g><g><path d="M251.8,886.7c72.5,37.1,153.9,56.4,235.3,58c4,0,8.9,0,12.9,0c82.2,0,163.6-17.7,237.7-53.2c67.7-32.2,128.9-80.6,174.1-141C963.4,681.2,990,598.2,990,512c0-54.8,0-108.8,0-163.6c0-59.6,0-118.5,0-178.1c0-21,0-41.9,0-62.1c0-37.9-37.9-62.9-72.5-49.2l-183.7,76.6c-12.1,4.8-25.8,5.6-37.9,0.8C636.2,113,570.1,100.9,500,100.9c-70.1,0-136.2,12.9-195.8,35.5c-12.1,4.8-25.8,4-37.9-0.8L82.5,61.5C47.9,47,10,72.8,10,110.6c0,28.2,0,57.2,0,85.4c0,58.8,0,117.7,0,177.3c0,50,0,99.1,0,149.1c0,79.8,25.8,157.2,71.7,221.6C125.2,804.5,184.9,852.9,251.8,886.7z M678.9,513.6c44.3,0,80.6,36.3,80.6,80.6c0,44.3-36.3,80.6-80.6,80.6c-44.3,0-80.6-36.3-80.6-80.6C598.3,549.1,634.6,513.6,678.9,513.6z M321.1,513.6c44.3,0,80.6,36.3,80.6,80.6c0,44.3-36.3,80.6-80.6,80.6s-80.6-36.3-80.6-80.6C240.5,549.1,276.8,513.6,321.1,513.6z"/></g><g></g><g></g><g></g><g></g><g></g><g></g><g></g><g></g><g></g><g></g><g></g><g></g><g></g><g></g><g></g></g>
</svg>