<?xml version="1.0" encoding="utf-8"?>
<!-- Generator: Adobe Illustrator 24.0.2, SVG Export Plug-In . SVG Version: 6.00 Build 0)  -->
<svg version="1.1" xmlns="http://www.w3.org/2000/svg" xmlns:xlink="http://www.w3.org/1999/xlink" x="0px" y="0px"
	 viewBox="0 0 24 24" style="enable-background:new 0 0 24 24;" xml:space="preserve">
<style type="text/css">
	.st0{fill:none;}
	.st1{fill:#121331;}
</style>
<g id="bounding_box">
	<rect class="st0" width="24" height="24"/>
</g>
<g id="design">
	<g>
		<path class="st1" d="M4.87,11h0.26C6.16,11,7,10.16,7,9.13V8.87C7,7.84,6.16,7,5.13,7H3.5C3.22,7,3,7.22,3,7.5v1.63
			C3,10.16,3.84,11,4.87,11z"/>
		<path class="st1" d="M8.87,7h0.26C10.16,7,11,6.16,11,5.13V4.87C11,3.84,10.16,3,9.13,3H7.5C7.22,3,7,3.22,7,3.5v1.63
			C7,6.16,7.84,7,8.87,7z"/>
		<path class="st1" d="M19,11L19,11c-1.1,0-2-0.9-2-2l0,0c0-1.1,0.9-2,2-2h1.5C20.78,7,21,7.22,21,7.5V9C21,10.1,20.1,11,19,11z"/>
		<path class="st1" d="M15.13,7h-0.26C13.84,7,13,6.16,13,5.13V4.87C13,3.84,13.84,3,14.87,3h1.63C16.78,3,17,3.22,17,3.5v1.63
			C17,6.16,16.16,7,15.13,7z"/>
		<g>
			<path class="st1" d="M18.93,17.91c-0.13,0.75-0.49,1.42-0.98,1.94c-0.49,0.53-1.13,0.91-1.84,1.07
				c-0.87,0.18-1.73,0.06-2.48-0.34c-1.11-0.59-2.09-0.61-3.3,0.02C9.82,20.86,9.26,21,8.69,21c-0.23,0-0.48-0.02-0.72-0.07
				c-1.5-0.3-2.67-1.55-2.92-3.12c-0.15-0.98,0.05-1.95,0.56-2.74l3.42-4.5c0.02-0.03,0.03-0.05,0.05-0.08C9.77,9.56,10.86,9,12,9
				s2.23,0.56,2.92,1.49c0.02,0.03,0.04,0.05,0.05,0.08L18.35,15C18.92,15.9,19.11,16.91,18.93,17.91z"/>
		</g>
	</g>
</g>
</svg>
